<svg width="1730" height="1650" viewBox="0 0 1730 1650" fill="none" xmlns="http://www.w3.org/2000/svg">
<g filter="url(#filter0_dn_357_3171)">
<mask id="path-1-outside-1_357_3171" maskUnits="userSpaceOnUse" x="98" y="-0.041748" width="1535" height="413" fill="black">
<rect fill="white" x="98" y="-0.041748" width="1535" height="413"/>
<path d="M199.702 399.326C171.073 399.326 149.243 391.274 134.212 375.17C119.182 358.709 111.667 335.268 111.667 304.85V18.2001H170.715V309.144C170.715 322.027 173.22 331.332 178.23 337.058C183.598 342.784 191.113 345.646 200.775 345.646C210.438 345.646 217.774 342.784 222.784 337.058C228.152 331.332 230.836 322.027 230.836 309.144V18.2001H287.737V304.85C287.737 335.268 280.221 358.709 265.191 375.17C250.161 391.274 228.331 399.326 199.702 399.326ZM329.791 18.2001H388.839V340.279H485.999V393.958H329.791V18.2001ZM518.543 71.8799H456.811V18.2001H639.322V71.8799H577.59V393.958H518.543V71.8799ZM667.911 18.2001H726.958V393.958H667.911V18.2001ZM771.181 18.2001H855.458L893.034 287.136H894.108L931.684 18.2001H1015.96V393.958H960.134V109.456H959.06L916.116 393.958H866.731L823.787 109.456H822.714V393.958H771.181V18.2001ZM1105.65 18.2001H1185.63L1246.83 393.958H1187.78L1177.05 319.343V320.417H1109.95L1099.21 393.958H1044.46L1105.65 18.2001ZM1170.07 269.421L1143.76 83.6894H1142.69L1116.92 269.421H1170.07ZM1297 71.8799H1235.27V18.2001H1417.78V71.8799H1356.05V393.958H1297V71.8799ZM1529.63 399.326C1500.64 399.326 1478.45 391.095 1463.06 374.634C1447.67 358.172 1439.98 334.911 1439.98 304.85V107.308C1439.98 77.2478 1447.67 53.9866 1463.06 37.5248C1478.45 21.063 1500.64 12.8321 1529.63 12.8321C1558.61 12.8321 1580.8 21.063 1596.19 37.5248C1611.58 53.9866 1619.27 77.2478 1619.27 107.308V304.85C1619.27 334.911 1611.58 358.172 1596.19 374.634C1580.8 391.095 1558.61 399.326 1529.63 399.326ZM1529.63 345.646C1550.02 345.646 1560.22 333.3 1560.22 308.607V103.551C1560.22 78.8582 1550.02 66.5119 1529.63 66.5119C1509.23 66.5119 1499.03 78.8582 1499.03 103.551V308.607C1499.03 333.3 1509.23 345.646 1529.63 345.646Z"/>
</mask>
<path d="M199.702 399.326C171.073 399.326 149.243 391.274 134.212 375.17C119.182 358.709 111.667 335.268 111.667 304.85V18.2001H170.715V309.144C170.715 322.027 173.22 331.332 178.23 337.058C183.598 342.784 191.113 345.646 200.775 345.646C210.438 345.646 217.774 342.784 222.784 337.058C228.152 331.332 230.836 322.027 230.836 309.144V18.2001H287.737V304.85C287.737 335.268 280.221 358.709 265.191 375.17C250.161 391.274 228.331 399.326 199.702 399.326ZM329.791 18.2001H388.839V340.279H485.999V393.958H329.791V18.2001ZM518.543 71.8799H456.811V18.2001H639.322V71.8799H577.59V393.958H518.543V71.8799ZM667.911 18.2001H726.958V393.958H667.911V18.2001ZM771.181 18.2001H855.458L893.034 287.136H894.108L931.684 18.2001H1015.96V393.958H960.134V109.456H959.06L916.116 393.958H866.731L823.787 109.456H822.714V393.958H771.181V18.2001ZM1105.65 18.2001H1185.63L1246.83 393.958H1187.78L1177.05 319.343V320.417H1109.95L1099.21 393.958H1044.46L1105.65 18.2001ZM1170.07 269.421L1143.76 83.6894H1142.69L1116.92 269.421H1170.07ZM1297 71.8799H1235.27V18.2001H1417.78V71.8799H1356.05V393.958H1297V71.8799ZM1529.63 399.326C1500.64 399.326 1478.45 391.095 1463.06 374.634C1447.67 358.172 1439.98 334.911 1439.98 304.85V107.308C1439.98 77.2478 1447.67 53.9866 1463.06 37.5248C1478.45 21.063 1500.64 12.8321 1529.63 12.8321C1558.61 12.8321 1580.8 21.063 1596.19 37.5248C1611.58 53.9866 1619.27 77.2478 1619.27 107.308V304.85C1619.27 334.911 1611.58 358.172 1596.19 374.634C1580.8 391.095 1558.61 399.326 1529.63 399.326ZM1529.63 345.646C1550.02 345.646 1560.22 333.3 1560.22 308.607V103.551C1560.22 78.8582 1550.02 66.5119 1529.63 66.5119C1509.23 66.5119 1499.03 78.8582 1499.03 103.551V308.607C1499.03 333.3 1509.23 345.646 1529.63 345.646Z" fill="url(#paint0_linear_357_3171)"/>
<path d="M134.212 375.17L124.736 383.823C124.768 383.857 124.799 383.892 124.831 383.926L134.212 375.17ZM111.667 18.2001V5.36795C104.58 5.36795 98.8348 11.1131 98.8348 18.2001H111.667ZM170.715 18.2001H183.547C183.547 11.1131 177.802 5.36795 170.715 5.36795V18.2001ZM178.23 337.058L168.573 345.508C168.669 345.618 168.768 345.727 168.868 345.834L178.23 337.058ZM222.784 337.058L213.422 328.281C213.322 328.388 213.224 328.497 213.127 328.608L222.784 337.058ZM230.836 18.2001V5.36795C223.749 5.36795 218.004 11.1131 218.004 18.2001H230.836ZM287.736 18.2001H300.569C300.569 11.1131 294.824 5.36795 287.736 5.36795V18.2001ZM265.191 375.17L274.572 383.926C274.604 383.892 274.636 383.857 274.667 383.823L265.191 375.17ZM199.702 399.326V386.494C173.506 386.494 155.524 379.198 143.593 366.415L134.212 375.17L124.831 383.926C142.961 403.351 168.639 412.158 199.702 412.158V399.326ZM134.212 375.17L143.689 366.518C131.499 353.167 124.499 333.247 124.499 304.85H111.667H98.8348C98.8348 337.29 106.865 364.25 124.736 383.823L134.212 375.17ZM111.667 304.85H124.499V18.2001H111.667H98.8348V304.85H111.667ZM111.667 18.2001V31.0323H170.715V18.2001V5.36795H111.667V18.2001ZM170.715 18.2001H157.883V309.144H170.715H183.547V18.2001H170.715ZM170.715 309.144H157.883C157.883 323.15 160.506 336.289 168.573 345.508L178.23 337.058L187.887 328.608C185.934 326.375 183.547 320.905 183.547 309.144H170.715ZM178.23 337.058L168.868 345.834C177.204 354.726 188.445 358.479 200.775 358.479V345.646V332.814C193.781 332.814 189.991 330.841 187.591 328.281L178.23 337.058ZM200.775 345.646V358.479C213.065 358.479 224.367 354.735 232.441 345.508L222.784 337.058L213.127 328.608C211.181 330.832 207.81 332.814 200.775 332.814V345.646ZM222.784 337.058L232.146 345.834C240.8 336.602 243.668 323.316 243.668 309.144H230.836H218.004C218.004 320.739 215.504 326.061 213.422 328.281L222.784 337.058ZM230.836 309.144H243.668V18.2001H230.836H218.004V309.144H230.836ZM230.836 18.2001V31.0323H287.736V18.2001V5.36795H230.836V18.2001ZM287.736 18.2001H274.904V304.85H287.736H300.569V18.2001H287.736ZM287.736 304.85H274.904C274.904 333.247 267.904 353.167 255.715 366.518L265.191 375.17L274.667 383.823C292.538 364.25 300.569 337.29 300.569 304.85H287.736ZM265.191 375.17L255.81 366.415C243.879 379.198 225.897 386.494 199.702 386.494V399.326V412.158C230.764 412.158 256.442 403.351 274.572 383.926L265.191 375.17ZM329.791 18.2001V5.36795C322.704 5.36795 316.959 11.1131 316.959 18.2001H329.791ZM388.839 18.2001H401.671C401.671 11.1131 395.926 5.36795 388.839 5.36795V18.2001ZM388.839 340.279H376.007C376.007 347.366 381.752 353.111 388.839 353.111V340.279ZM485.999 340.279H498.831C498.831 333.192 493.086 327.446 485.999 327.446V340.279ZM485.999 393.958V406.79C493.086 406.79 498.831 401.045 498.831 393.958H485.999ZM329.791 393.958H316.959C316.959 401.045 322.704 406.79 329.791 406.79V393.958ZM329.791 18.2001V31.0323H388.839V18.2001V5.36795H329.791V18.2001ZM388.839 18.2001H376.007V340.279H388.839H401.671V18.2001H388.839ZM388.839 340.279V353.111H485.999V340.279V327.446H388.839V340.279ZM485.999 340.279H473.167V393.958H485.999H498.831V340.279H485.999ZM485.999 393.958V381.126H329.791V393.958V406.79H485.999V393.958ZM329.791 393.958H342.623V18.2001H329.791H316.959V393.958H329.791ZM518.543 71.8799H531.375C531.375 64.7928 525.63 59.0477 518.543 59.0477V71.8799ZM456.811 71.8799H443.979C443.979 78.9669 449.724 84.712 456.811 84.712V71.8799ZM456.811 18.2001V5.36795C449.724 5.36795 443.979 11.1131 443.979 18.2001H456.811ZM639.322 18.2001H652.154C652.154 11.1131 646.409 5.36795 639.322 5.36795V18.2001ZM639.322 71.8799V84.712C646.409 84.712 652.154 78.9669 652.154 71.8799H639.322ZM577.59 71.8799V59.0477C570.503 59.0477 564.758 64.7928 564.758 71.8799H577.59ZM577.59 393.958V406.79C584.677 406.79 590.422 401.045 590.422 393.958H577.59ZM518.543 393.958H505.71C505.71 401.045 511.456 406.79 518.543 406.79V393.958ZM518.543 71.8799V59.0477H456.811V71.8799V84.712H518.543V71.8799ZM456.811 71.8799H469.643V18.2001H456.811H443.979V71.8799H456.811ZM456.811 18.2001V31.0323H639.322V18.2001V5.36795H456.811V18.2001ZM639.322 18.2001H626.49V71.8799H639.322H652.154V18.2001H639.322ZM639.322 71.8799V59.0477H577.59V71.8799V84.712H639.322V71.8799ZM577.59 71.8799H564.758V393.958H577.59H590.422V71.8799H577.59ZM577.59 393.958V381.126H518.543V393.958V406.79H577.59V393.958ZM518.543 393.958H531.375V71.8799H518.543H505.71V393.958H518.543ZM667.911 18.2001V5.36795C660.824 5.36795 655.078 11.1131 655.078 18.2001H667.911ZM726.958 18.2001H739.79C739.79 11.1131 734.045 5.36795 726.958 5.36795V18.2001ZM726.958 393.958V406.79C734.045 406.79 739.79 401.045 739.79 393.958H726.958ZM667.911 393.958H655.078C655.078 401.045 660.824 406.79 667.911 406.79V393.958ZM667.911 18.2001V31.0323H726.958V18.2001V5.36795H667.911V18.2001ZM726.958 18.2001H714.126V393.958H726.958H739.79V18.2001H726.958ZM726.958 393.958V381.126H667.911V393.958V406.79H726.958V393.958ZM667.911 393.958H680.743V18.2001H667.911H655.078V393.958H667.911ZM771.181 18.2001V5.36795C764.094 5.36795 758.349 11.1131 758.349 18.2001H771.181ZM855.458 18.2001L868.167 16.4244C867.281 10.0851 861.859 5.36795 855.458 5.36795V18.2001ZM893.034 287.136L880.325 288.911C881.211 295.251 886.633 299.968 893.034 299.968V287.136ZM894.108 287.136V299.968C900.509 299.968 905.931 295.251 906.816 288.911L894.108 287.136ZM931.684 18.2001V5.36795C925.283 5.36795 919.861 10.0851 918.975 16.4244L931.684 18.2001ZM1015.96 18.2001H1028.79C1028.79 11.1131 1023.05 5.36795 1015.96 5.36795V18.2001ZM1015.96 393.958V406.79C1023.05 406.79 1028.79 401.045 1028.79 393.958H1015.96ZM960.134 393.958H947.302C947.302 401.045 953.047 406.79 960.134 406.79V393.958ZM960.134 109.456H972.966C972.966 102.369 967.221 96.6235 960.134 96.6235V109.456ZM959.06 109.456V96.6235C952.713 96.6235 947.319 101.264 946.372 107.54L959.06 109.456ZM916.116 393.958V406.79C922.464 406.79 927.858 402.15 928.805 395.873L916.116 393.958ZM866.731 393.958L854.043 395.873C854.99 402.15 860.384 406.79 866.731 406.79V393.958ZM823.787 109.456L836.476 107.54C835.528 101.264 830.135 96.6235 823.787 96.6235V109.456ZM822.714 109.456V96.6235C815.627 96.6235 809.882 102.369 809.882 109.456H822.714ZM822.714 393.958V406.79C829.801 406.79 835.546 401.045 835.546 393.958H822.714ZM771.181 393.958H758.349C758.349 401.045 764.094 406.79 771.181 406.79V393.958ZM771.181 18.2001V31.0323H855.458V18.2001V5.36795H771.181V18.2001ZM855.458 18.2001L842.75 19.9758L880.325 288.911L893.034 287.136L905.743 285.36L868.167 16.4244L855.458 18.2001ZM893.034 287.136V299.968H894.108V287.136V274.303H893.034V287.136ZM894.108 287.136L906.816 288.911L944.392 19.9758L931.684 18.2001L918.975 16.4244L881.399 285.36L894.108 287.136ZM931.684 18.2001V31.0323H1015.96V18.2001V5.36795H931.684V18.2001ZM1015.96 18.2001H1003.13V393.958H1015.96H1028.79V18.2001H1015.96ZM1015.96 393.958V381.126H960.134V393.958V406.79H1015.96V393.958ZM960.134 393.958H972.966V109.456H960.134H947.302V393.958H960.134ZM960.134 109.456V96.6235H959.06V109.456V122.288H960.134V109.456ZM959.06 109.456L946.372 107.54L903.428 392.043L916.116 393.958L928.805 395.873L971.749 111.371L959.06 109.456ZM916.116 393.958V381.126H866.731V393.958V406.79H916.116V393.958ZM866.731 393.958L879.42 392.043L836.476 107.54L823.787 109.456L811.099 111.371L854.043 395.873L866.731 393.958ZM823.787 109.456V96.6235H822.714V109.456V122.288H823.787V109.456ZM822.714 109.456H809.882V393.958H822.714H835.546V109.456H822.714ZM822.714 393.958V381.126H771.181V393.958V406.79H822.714V393.958ZM771.181 393.958H784.013V18.2001H771.181H758.349V393.958H771.181ZM1105.65 18.2001V5.36795C1099.36 5.36795 1094 9.92841 1092.99 16.1375L1105.65 18.2001ZM1185.63 18.2001L1198.3 16.1375C1197.29 9.92841 1191.93 5.36795 1185.63 5.36795V18.2001ZM1246.83 393.958V406.79C1250.59 406.79 1254.17 405.138 1256.61 402.271C1259.04 399.404 1260.1 395.61 1259.49 391.896L1246.83 393.958ZM1187.78 393.958L1175.08 395.786C1175.99 402.102 1181.4 406.79 1187.78 406.79V393.958ZM1177.05 319.343L1189.75 317.516C1188.79 310.853 1182.84 306.063 1176.13 306.544C1169.42 307.025 1164.21 312.612 1164.21 319.343H1177.05ZM1177.05 320.417V333.249C1184.13 333.249 1189.88 327.504 1189.88 320.417H1177.05ZM1109.95 320.417V307.585C1103.58 307.585 1098.17 312.259 1097.25 318.563L1109.95 320.417ZM1099.21 393.958V406.79C1105.58 406.79 1110.99 402.116 1111.91 395.812L1099.21 393.958ZM1044.46 393.958L1031.79 391.896C1031.19 395.61 1032.24 399.404 1034.68 402.271C1037.12 405.138 1040.69 406.79 1044.46 406.79V393.958ZM1170.07 269.421V282.253C1173.78 282.253 1177.32 280.642 1179.76 277.835C1182.19 275.028 1183.29 271.302 1182.77 267.622L1170.07 269.421ZM1143.76 83.6894L1156.47 81.8901C1155.57 75.5614 1150.16 70.8572 1143.76 70.8572V83.6894ZM1142.69 83.6894V70.8572C1136.29 70.8572 1130.86 75.5812 1129.98 81.9261L1142.69 83.6894ZM1116.92 269.421L1104.21 267.658C1103.7 271.334 1104.81 275.05 1107.25 277.849C1109.68 280.647 1113.21 282.253 1116.92 282.253V269.421ZM1105.65 18.2001V31.0323H1185.63V18.2001V5.36795H1105.65V18.2001ZM1185.63 18.2001L1172.97 20.2628L1234.16 396.021L1246.83 393.958L1259.49 391.896L1198.3 16.1375L1185.63 18.2001ZM1246.83 393.958V381.126H1187.78V393.958V406.79H1246.83V393.958ZM1187.78 393.958L1200.48 392.131L1189.75 317.516L1177.05 319.343L1164.34 321.171L1175.08 395.786L1187.78 393.958ZM1177.05 319.343H1164.21V320.417H1177.05H1189.88V319.343H1177.05ZM1177.05 320.417V307.585H1109.95V320.417V333.249H1177.05V320.417ZM1109.95 320.417L1097.25 318.563L1086.51 392.105L1099.21 393.958L1111.91 395.812L1122.64 322.271L1109.95 320.417ZM1099.21 393.958V381.126H1044.46V393.958V406.79H1099.21V393.958ZM1044.46 393.958L1057.12 396.021L1118.32 20.2628L1105.65 18.2001L1092.99 16.1375L1031.79 391.896L1044.46 393.958ZM1170.07 269.421L1182.77 267.622L1156.47 81.8901L1143.76 83.6894L1131.06 85.4887L1157.36 271.221L1170.07 269.421ZM1143.76 83.6894V70.8572H1142.69V83.6894V96.5215H1143.76V83.6894ZM1142.69 83.6894L1129.98 81.9261L1104.21 267.658L1116.92 269.421L1129.64 271.185L1155.4 85.4527L1142.69 83.6894ZM1116.92 269.421V282.253H1170.07V269.421V256.589H1116.92V269.421ZM1297 71.8799H1309.84C1309.84 64.7928 1304.09 59.0477 1297 59.0477V71.8799ZM1235.27 71.8799H1222.44C1222.44 78.9669 1228.18 84.712 1235.27 84.712V71.8799ZM1235.27 18.2001V5.36795C1228.18 5.36795 1222.44 11.1131 1222.44 18.2001H1235.27ZM1417.78 18.2001H1430.62C1430.62 11.1131 1424.87 5.36795 1417.78 5.36795V18.2001ZM1417.78 71.8799V84.712C1424.87 84.712 1430.62 78.9669 1430.62 71.8799H1417.78ZM1356.05 71.8799V59.0477C1348.96 59.0477 1343.22 64.7928 1343.22 71.8799H1356.05ZM1356.05 393.958V406.79C1363.14 406.79 1368.88 401.045 1368.88 393.958H1356.05ZM1297 393.958H1284.17C1284.17 401.045 1289.92 406.79 1297 406.79V393.958ZM1297 71.8799V59.0477H1235.27V71.8799V84.712H1297V71.8799ZM1235.27 71.8799H1248.1V18.2001H1235.27H1222.44V71.8799H1235.27ZM1235.27 18.2001V31.0323H1417.78V18.2001V5.36795H1235.27V18.2001ZM1417.78 18.2001H1404.95V71.8799H1417.78H1430.62V18.2001H1417.78ZM1417.78 71.8799V59.0477H1356.05V71.8799V84.712H1417.78V71.8799ZM1356.05 71.8799H1343.22V393.958H1356.05H1368.88V71.8799H1356.05ZM1356.05 393.958V381.126H1297V393.958V406.79H1356.05V393.958ZM1297 393.958H1309.84V71.8799H1297H1284.17V393.958H1297ZM1463.06 374.634L1472.44 365.871V365.871L1463.06 374.634ZM1463.06 37.5248L1472.44 46.2877V46.2877L1463.06 37.5248ZM1596.19 37.5248L1586.81 46.2877V46.2877L1596.19 37.5248ZM1596.19 374.634L1586.81 365.871V365.871L1596.19 374.634ZM1529.63 399.326V386.494C1503.12 386.494 1484.75 379.043 1472.44 365.871L1463.06 374.634L1453.69 383.396C1472.15 403.147 1498.16 412.158 1529.63 412.158V399.326ZM1463.06 374.634L1472.44 365.871C1459.93 352.489 1452.81 332.768 1452.81 304.85H1439.98H1427.15C1427.15 337.053 1435.42 363.854 1453.69 383.396L1463.06 374.634ZM1439.98 304.85H1452.81V107.308H1439.98H1427.15V304.85H1439.98ZM1439.98 107.308H1452.81C1452.81 79.3904 1459.93 59.6691 1472.44 46.2877L1463.06 37.5248L1453.69 28.762C1435.42 48.3041 1427.15 75.1053 1427.15 107.308H1439.98ZM1463.06 37.5248L1472.44 46.2877C1484.75 33.1152 1503.12 25.6643 1529.63 25.6643V12.8322V0C1498.16 0 1472.15 9.01089 1453.69 28.762L1463.06 37.5248ZM1529.63 12.8322V25.6643C1556.14 25.6643 1574.5 33.1152 1586.81 46.2877L1596.19 37.5248L1605.56 28.762C1587.1 9.01089 1561.09 0 1529.63 0V12.8322ZM1596.19 37.5248L1586.81 46.2877C1599.32 59.6691 1606.44 79.3904 1606.44 107.308H1619.27H1632.1C1632.1 75.1053 1623.83 48.3041 1605.56 28.762L1596.19 37.5248ZM1619.27 107.308H1606.44V304.85H1619.27H1632.1V107.308H1619.27ZM1619.27 304.85H1606.44C1606.44 332.768 1599.32 352.489 1586.81 365.871L1596.19 374.634L1605.56 383.396C1623.83 363.854 1632.1 337.053 1632.1 304.85H1619.27ZM1596.19 374.634L1586.81 365.871C1574.5 379.043 1556.14 386.494 1529.63 386.494V399.326V412.158C1561.09 412.158 1587.1 403.147 1605.56 383.396L1596.19 374.634ZM1529.63 345.646V358.479C1542.52 358.479 1554.29 354.459 1562.47 344.559C1570.26 335.129 1573.05 322.399 1573.05 308.607H1560.22H1547.39C1547.39 319.509 1545.09 325.298 1542.68 328.214C1540.66 330.661 1537.13 332.814 1529.63 332.814V345.646ZM1560.22 308.607H1573.05V103.551H1560.22H1547.39V308.607H1560.22ZM1560.22 103.551H1573.05C1573.05 89.7595 1570.26 77.0296 1562.47 67.5991C1554.29 57.6991 1542.52 53.6797 1529.63 53.6797V66.5119V79.3441C1537.13 79.3441 1540.66 81.4978 1542.68 83.9442C1545.09 86.8601 1547.39 92.6497 1547.39 103.551H1560.22ZM1529.63 66.5119V53.6797C1516.73 53.6797 1504.96 57.6991 1496.78 67.5991C1488.99 77.0296 1486.2 89.7595 1486.2 103.551H1499.03H1511.86C1511.86 92.6497 1514.16 86.8601 1516.57 83.9442C1518.59 81.4978 1522.12 79.3441 1529.63 79.3441V66.5119ZM1499.03 103.551H1486.2V308.607H1499.03H1511.86V103.551H1499.03ZM1499.03 308.607H1486.2C1486.2 322.399 1488.99 335.129 1496.78 344.559C1504.96 354.459 1516.73 358.479 1529.63 358.479V345.646V332.814C1522.12 332.814 1518.59 330.661 1516.57 328.214C1514.16 325.298 1511.86 319.509 1511.86 308.607H1499.03Z" fill="white" mask="url(#path-1-outside-1_357_3171)"/>
<mask id="path-3-outside-2_357_3171" maskUnits="userSpaceOnUse" x="96" y="468.958" width="1552" height="1055" fill="black">
<rect fill="white" x="96" y="468.958" width="1552" height="1055"/>
<path d="M347.321 1511.26C270.109 1511.26 211.008 1489.33 170.019 1445.48C129.03 1401.63 108.535 1339.67 108.535 1259.6V733.417C108.535 653.345 129.03 591.385 170.019 547.536C211.008 503.687 270.109 481.763 347.321 481.763C424.533 481.763 483.633 503.687 524.623 547.536C565.612 591.385 586.106 653.345 586.106 733.417V1259.6C586.106 1339.67 565.612 1401.63 524.623 1445.48C483.633 1489.33 424.533 1511.26 347.321 1511.26ZM347.321 1368.27C401.655 1368.27 428.822 1335.38 428.822 1269.61V723.408C428.822 657.635 401.655 624.748 347.321 624.748C292.986 624.748 265.819 657.635 265.819 723.408V1269.61C265.819 1335.38 292.986 1368.27 347.321 1368.27ZM754.024 496.061H967.072L1130.08 1496.96H972.792L944.195 1298.21V1301.07H765.463L736.866 1496.96H591.021L754.024 496.061ZM925.607 1165.23L855.544 670.503H852.684L784.051 1165.23H925.607ZM1149.19 496.061H1386.54C1467.57 496.061 1526.67 515.126 1563.85 553.256C1601.02 590.432 1619.61 648.102 1619.61 726.268V766.304C1619.61 817.778 1611.03 859.721 1593.87 892.131C1577.67 924.541 1552.41 947.895 1518.09 962.193V965.053C1596.26 991.744 1635.34 1061.33 1635.34 1173.81V1259.6C1635.34 1336.81 1614.84 1395.92 1573.85 1436.9C1533.82 1476.94 1474.72 1496.96 1396.55 1496.96H1149.19V496.061ZM1367.96 903.569C1399.41 903.569 1422.77 895.467 1438.02 879.262C1454.22 863.057 1462.33 835.89 1462.33 797.76V741.996C1462.33 705.773 1455.65 679.559 1442.31 663.354C1429.92 647.149 1409.9 639.047 1382.25 639.047H1306.47V903.569H1367.96ZM1396.55 1353.97C1424.2 1353.97 1444.69 1346.82 1458.04 1332.53C1471.38 1317.27 1478.05 1291.54 1478.05 1255.31V1168.09C1478.05 1122.34 1469.95 1090.88 1453.75 1073.72C1438.5 1055.61 1412.76 1046.55 1376.54 1046.55H1306.47V1353.97H1396.55Z"/>
</mask>
<path d="M347.321 1511.26C270.109 1511.26 211.008 1489.33 170.019 1445.48C129.03 1401.63 108.535 1339.67 108.535 1259.6V733.417C108.535 653.345 129.03 591.385 170.019 547.536C211.008 503.687 270.109 481.763 347.321 481.763C424.533 481.763 483.633 503.687 524.623 547.536C565.612 591.385 586.106 653.345 586.106 733.417V1259.6C586.106 1339.67 565.612 1401.63 524.623 1445.48C483.633 1489.33 424.533 1511.26 347.321 1511.26ZM347.321 1368.27C401.655 1368.27 428.822 1335.38 428.822 1269.61V723.408C428.822 657.635 401.655 624.748 347.321 624.748C292.986 624.748 265.819 657.635 265.819 723.408V1269.61C265.819 1335.38 292.986 1368.27 347.321 1368.27ZM754.024 496.061H967.072L1130.08 1496.96H972.792L944.195 1298.21V1301.07H765.463L736.866 1496.96H591.021L754.024 496.061ZM925.607 1165.23L855.544 670.503H852.684L784.051 1165.23H925.607ZM1149.19 496.061H1386.54C1467.57 496.061 1526.67 515.126 1563.85 553.256C1601.02 590.432 1619.61 648.102 1619.61 726.268V766.304C1619.61 817.778 1611.03 859.721 1593.87 892.131C1577.67 924.541 1552.41 947.895 1518.09 962.193V965.053C1596.26 991.744 1635.34 1061.33 1635.34 1173.81V1259.6C1635.34 1336.81 1614.84 1395.92 1573.85 1436.9C1533.82 1476.94 1474.72 1496.96 1396.55 1496.96H1149.19V496.061ZM1367.96 903.569C1399.41 903.569 1422.77 895.467 1438.02 879.262C1454.22 863.057 1462.33 835.89 1462.33 797.76V741.996C1462.33 705.773 1455.65 679.559 1442.31 663.354C1429.92 647.149 1409.9 639.047 1382.25 639.047H1306.47V903.569H1367.96ZM1396.55 1353.97C1424.2 1353.97 1444.69 1346.82 1458.04 1332.53C1471.38 1317.27 1478.05 1291.54 1478.05 1255.31V1168.09C1478.05 1122.34 1469.95 1090.88 1453.75 1073.72C1438.5 1055.61 1412.76 1046.55 1376.54 1046.55H1306.47V1353.97H1396.55Z" fill="url(#paint1_linear_357_3171)"/>
<path d="M170.019 1445.48L178.785 1437.29V1437.29L170.019 1445.48ZM170.019 547.536L178.785 555.731V555.731L170.019 547.536ZM524.622 547.536L515.856 555.731V555.731L524.622 547.536ZM524.622 1445.48L515.856 1437.29V1437.29L524.622 1445.48ZM347.321 1511.26V1499.26C272.426 1499.26 216.899 1478.06 178.785 1437.29L170.019 1445.48L161.253 1453.68C205.117 1500.6 267.792 1523.26 347.321 1523.26V1511.26ZM170.019 1445.48L178.785 1437.29C140.489 1396.32 120.535 1337.67 120.535 1259.6H108.535H96.5354C96.5354 1341.68 117.571 1406.95 161.253 1453.68L170.019 1445.48ZM108.535 1259.6H120.535V733.417H108.535H96.5354V1259.6H108.535ZM108.535 733.417H120.535C120.535 655.349 140.489 596.699 178.785 555.731L170.019 547.536L161.253 539.341C117.571 586.071 96.5354 651.342 96.5354 733.417H108.535ZM170.019 547.536L178.785 555.731C216.899 514.958 272.426 493.763 347.321 493.763V481.763V469.763C267.792 469.763 205.117 492.417 161.253 539.341L170.019 547.536ZM347.321 481.763V493.763C422.216 493.763 477.742 514.958 515.856 555.731L524.622 547.536L533.389 539.341C489.524 492.417 426.85 469.763 347.321 469.763V481.763ZM524.622 547.536L515.856 555.731C554.153 596.699 574.106 655.349 574.106 733.417H586.106H598.106C598.106 651.342 577.071 586.071 533.389 539.341L524.622 547.536ZM586.106 733.417H574.106V1259.6H586.106H598.106V733.417H586.106ZM586.106 1259.6H574.106C574.106 1337.67 554.153 1396.32 515.856 1437.29L524.622 1445.48L533.389 1453.68C577.071 1406.95 598.106 1341.68 598.106 1259.6H586.106ZM524.622 1445.48L515.856 1437.29C477.742 1478.06 422.216 1499.26 347.321 1499.26V1511.26V1523.26C426.85 1523.26 489.524 1500.6 533.389 1453.68L524.622 1445.48ZM347.321 1368.27V1380.27C377.006 1380.27 401.236 1371.18 417.699 1351.25C433.798 1331.76 440.822 1303.85 440.822 1269.61H428.822H416.822C416.822 1301.15 410.263 1322.57 399.195 1335.96C388.491 1348.92 371.97 1356.27 347.321 1356.27V1368.27ZM428.822 1269.61H440.822V723.408H428.822H416.822V1269.61H428.822ZM428.822 723.408H440.822C440.822 689.17 433.798 661.26 417.699 641.771C401.236 621.842 377.006 612.748 347.321 612.748V624.748V636.748C371.97 636.748 388.491 644.098 399.195 657.056C410.263 670.453 416.822 691.873 416.822 723.408H428.822ZM347.321 624.748V612.748C317.636 612.748 293.406 621.842 276.943 641.771C260.843 661.26 253.819 689.17 253.819 723.408H265.819H277.819C277.819 691.873 284.379 670.453 295.446 657.056C306.151 644.098 322.671 636.748 347.321 636.748V624.748ZM265.819 723.408H253.819V1269.61H265.819H277.819V723.408H265.819ZM265.819 1269.61H253.819C253.819 1303.85 260.843 1331.76 276.943 1351.25C293.406 1371.18 317.636 1380.27 347.321 1380.27V1368.27V1356.27C322.671 1356.27 306.151 1348.92 295.446 1335.96C284.379 1322.57 277.819 1301.15 277.819 1269.61H265.819ZM754.024 496.061V484.061C748.142 484.061 743.126 488.326 742.18 494.133L754.024 496.061ZM967.073 496.061L978.916 494.133C977.971 488.326 972.955 484.061 967.073 484.061V496.061ZM1130.08 1496.96V1508.96C1133.6 1508.96 1136.94 1507.41 1139.22 1504.73C1141.5 1502.05 1142.49 1498.5 1141.92 1495.03L1130.08 1496.96ZM972.792 1496.96L960.914 1498.67C961.764 1504.57 966.825 1508.96 972.792 1508.96V1496.96ZM944.195 1298.21L956.073 1296.5C955.176 1290.27 949.617 1285.79 943.338 1286.24C937.059 1286.69 932.195 1291.91 932.195 1298.21H944.195ZM944.195 1301.07V1313.07C950.822 1313.07 956.195 1307.7 956.195 1301.07H944.195ZM765.463 1301.07V1289.07C759.505 1289.07 754.45 1293.44 753.589 1299.33L765.463 1301.07ZM736.866 1496.96V1508.96C742.824 1508.96 747.88 1504.59 748.74 1498.69L736.866 1496.96ZM591.021 1496.96L579.177 1495.03C578.612 1498.5 579.599 1502.05 581.879 1504.73C584.159 1507.41 587.502 1508.96 591.021 1508.96V1496.96ZM925.607 1165.23V1177.23C929.083 1177.23 932.388 1175.73 934.667 1173.1C936.947 1170.48 937.976 1166.99 937.488 1163.55L925.607 1165.23ZM855.544 670.503L867.425 668.821C866.587 662.903 861.521 658.503 855.544 658.503V670.503ZM852.684 670.503V658.503C846.694 658.503 841.621 662.921 840.798 668.855L852.684 670.503ZM784.051 1165.23L772.165 1163.58C771.688 1167.02 772.723 1170.5 775.002 1173.11C777.281 1175.73 780.581 1177.23 784.051 1177.23V1165.23ZM754.024 496.061V508.061H967.073V496.061V484.061H754.024V496.061ZM967.073 496.061L955.229 497.99L1118.23 1498.89L1130.08 1496.96L1141.92 1495.03L978.916 494.133L967.073 496.061ZM1130.08 1496.96V1484.96H972.792V1496.96V1508.96H1130.08V1496.96ZM972.792 1496.96L984.67 1495.25L956.073 1296.5L944.195 1298.21L932.317 1299.92L960.914 1498.67L972.792 1496.96ZM944.195 1298.21H932.195V1301.07H944.195H956.195V1298.21H944.195ZM944.195 1301.07V1289.07H765.463V1301.07V1313.07H944.195V1301.07ZM765.463 1301.07L753.589 1299.33L724.992 1495.22L736.866 1496.96L748.74 1498.69L777.337 1302.8L765.463 1301.07ZM736.866 1496.96V1484.96H591.021V1496.96V1508.96H736.866V1496.96ZM591.021 1496.96L602.865 1498.89L765.868 497.99L754.024 496.061L742.18 494.133L579.177 1495.03L591.021 1496.96ZM925.607 1165.23L937.488 1163.55L867.425 668.821L855.544 670.503L843.663 672.186L913.725 1166.92L925.607 1165.23ZM855.544 670.503V658.503H852.684V670.503V682.503H855.544V670.503ZM852.684 670.503L840.798 668.855L772.165 1163.58L784.051 1165.23L795.938 1166.88L864.57 672.152L852.684 670.503ZM784.051 1165.23V1177.23H925.607V1165.23V1153.23H784.051V1165.23ZM1149.19 496.061V484.061C1142.56 484.061 1137.19 489.434 1137.19 496.061H1149.19ZM1563.85 553.256L1555.25 561.633C1555.29 561.669 1555.32 561.705 1555.36 561.741L1563.85 553.256ZM1593.87 892.131L1583.27 886.516C1583.22 886.598 1583.18 886.681 1583.14 886.764L1593.87 892.131ZM1518.09 962.193L1513.48 951.116C1509 952.98 1506.09 957.349 1506.09 962.193H1518.09ZM1518.09 965.053H1506.09C1506.09 970.186 1509.36 974.751 1514.21 976.409L1518.09 965.053ZM1573.85 1436.9L1582.34 1445.39V1445.39L1573.85 1436.9ZM1149.19 1496.96H1137.19C1137.19 1503.59 1142.56 1508.96 1149.19 1508.96V1496.96ZM1438.02 879.262L1429.53 870.777C1429.45 870.862 1429.36 870.949 1429.28 871.038L1438.02 879.262ZM1442.31 663.354L1432.78 670.644C1432.86 670.758 1432.95 670.871 1433.05 670.983L1442.31 663.354ZM1306.47 639.047V627.047C1299.84 627.047 1294.47 632.419 1294.47 639.047H1306.47ZM1306.47 903.569H1294.47C1294.47 910.197 1299.84 915.569 1306.47 915.569V903.569ZM1458.04 1332.53L1466.81 1340.71C1466.9 1340.62 1466.98 1340.52 1467.07 1340.43L1458.04 1332.53ZM1453.75 1073.72L1444.57 1081.45C1444.72 1081.63 1444.87 1081.8 1445.02 1081.96L1453.75 1073.72ZM1306.47 1046.55V1034.55C1299.84 1034.55 1294.47 1039.93 1294.47 1046.55H1306.47ZM1306.47 1353.97H1294.47C1294.47 1360.6 1299.84 1365.97 1306.47 1365.97V1353.97ZM1149.19 496.061V508.061H1386.54V496.061V484.061H1149.19V496.061ZM1386.54 496.061V508.061C1466 508.061 1521.28 526.788 1555.25 561.633L1563.85 553.256L1572.44 544.878C1532.06 503.464 1469.14 484.061 1386.54 484.061V496.061ZM1563.85 553.256L1555.36 561.741C1589.39 595.774 1607.61 649.749 1607.61 726.268H1619.61H1631.61C1631.61 646.456 1612.65 585.09 1572.33 544.77L1563.85 553.256ZM1619.61 726.268H1607.61V766.304H1619.61H1631.61V726.268H1619.61ZM1619.61 766.304H1607.61C1607.61 816.566 1599.22 856.392 1583.27 886.516L1593.87 892.131L1604.48 897.745C1622.85 863.049 1631.61 818.991 1631.61 766.304H1619.61ZM1593.87 892.131L1583.14 886.764C1568.26 916.526 1545.21 937.894 1513.48 951.116L1518.09 962.193L1522.71 973.27C1559.61 957.896 1587.08 932.555 1604.61 897.497L1593.87 892.131ZM1518.09 962.193H1506.09V965.053H1518.09H1530.09V962.193H1518.09ZM1518.09 965.053L1514.21 976.409C1550.61 988.837 1577.52 1011.02 1595.56 1043.14C1613.77 1075.55 1623.34 1118.83 1623.34 1173.81H1635.34H1647.34C1647.34 1116.31 1637.37 1068.56 1616.49 1031.38C1595.45 993.92 1563.74 967.96 1521.97 953.697L1518.09 965.053ZM1635.34 1173.81H1623.34V1259.6H1635.34H1647.34V1173.81H1635.34ZM1635.34 1259.6H1623.34C1623.34 1334.72 1603.44 1390.35 1565.37 1428.42L1573.85 1436.9L1582.34 1445.39C1626.25 1401.48 1647.34 1338.91 1647.34 1259.6H1635.34ZM1573.85 1436.9L1565.37 1428.42C1528.33 1465.46 1472.77 1484.96 1396.55 1484.96V1496.96V1508.96C1476.67 1508.96 1539.31 1488.42 1582.34 1445.39L1573.85 1436.9ZM1396.55 1496.96V1484.96H1149.19V1496.96V1508.96H1396.55V1496.96ZM1149.19 1496.96H1161.19V496.061H1149.19H1137.19V1496.96H1149.19ZM1367.96 903.569V915.569C1401.32 915.569 1428.43 906.958 1446.76 887.486L1438.02 879.262L1429.28 871.038C1417.1 883.976 1397.5 891.569 1367.96 891.569V903.569ZM1438.02 879.262L1446.5 887.747C1466.06 868.191 1474.33 837.073 1474.33 797.76H1462.33H1450.33C1450.33 834.706 1442.39 857.923 1429.53 870.777L1438.02 879.262ZM1462.33 797.76H1474.33V741.996H1462.33H1450.33V797.76H1462.33ZM1462.33 741.996H1474.33C1474.33 704.82 1467.58 675.161 1451.57 655.726L1442.31 663.354L1433.05 670.983C1443.73 683.957 1450.33 706.726 1450.33 741.996H1462.33ZM1442.31 663.354L1451.84 656.065C1436.43 635.917 1412.21 627.047 1382.25 627.047V639.047V651.047C1407.59 651.047 1423.4 658.382 1432.78 670.644L1442.31 663.354ZM1382.25 639.047V627.047H1306.47V639.047V651.047H1382.25V639.047ZM1306.47 639.047H1294.47V903.569H1306.47H1318.47V639.047H1306.47ZM1306.47 903.569V915.569H1367.96V903.569V891.569H1306.47V903.569ZM1396.55 1353.97V1365.97C1426.12 1365.97 1450.39 1358.31 1466.81 1340.71L1458.04 1332.53L1449.26 1324.34C1439 1335.34 1422.28 1341.97 1396.55 1341.97V1353.97ZM1458.04 1332.53L1467.07 1340.43C1483.35 1321.82 1490.05 1292.38 1490.05 1255.31H1478.05H1466.05C1466.05 1290.69 1459.42 1312.73 1449.01 1324.62L1458.04 1332.53ZM1478.05 1255.31H1490.05V1168.09H1478.05H1466.05V1255.31H1478.05ZM1478.05 1168.09H1490.05C1490.05 1121.79 1482.03 1086.19 1462.47 1065.48L1453.75 1073.72L1445.02 1081.96C1457.87 1095.57 1466.05 1122.89 1466.05 1168.09H1478.05ZM1453.75 1073.72L1462.93 1065.99C1444.41 1044 1414.41 1034.55 1376.54 1034.55V1046.55V1058.55C1411.11 1058.55 1432.58 1067.22 1444.57 1081.45L1453.75 1073.72ZM1376.54 1046.55V1034.55H1306.47V1046.55V1058.55H1376.54V1046.55ZM1306.47 1046.55H1294.47V1353.97H1306.47H1318.47V1046.55H1306.47ZM1306.47 1353.97V1365.97H1396.55V1353.97V1341.97H1306.47V1353.97Z" fill="white" fill-opacity="0.95" mask="url(#path-3-outside-2_357_3171)"/>
</g>
<defs>
<filter id="filter0_dn_357_3171" x="95.5352" y="0" width="1551.8" height="1559.26" filterUnits="userSpaceOnUse" color-interpolation-filters="sRGB">
<feFlood flood-opacity="0" result="BackgroundImageFix"/>
<feColorMatrix in="SourceAlpha" type="matrix" values="0 0 0 0 0 0 0 0 0 0 0 0 0 0 0 0 0 0 127 0" result="hardAlpha"/>
<feOffset dx="-1" dy="36"/>
<feComposite in2="hardAlpha" operator="out"/>
<feColorMatrix type="matrix" values="0 0 0 0 0 0 0 0 0 0 0 0 0 0 0 0 0 0 1 0"/>
<feBlend mode="normal" in2="BackgroundImageFix" result="effect1_dropShadow_357_3171"/>
<feBlend mode="normal" in="SourceGraphic" in2="BackgroundImageFix" result="shape"/>
<feTurbulence type="fractalNoise" baseFrequency="0.66666668653488159 0.40000000596046448" stitchTiles="stitch" numOctaves="3" result="noise" seed="3359" />
<feColorMatrix in="noise" type="luminanceToAlpha" result="alphaNoise" />
<feComponentTransfer in="alphaNoise" result="coloredNoise1">
<feFuncA type="discrete" tableValues="1 1 1 1 1 1 1 1 1 1 1 1 1 1 1 1 1 1 1 1 1 1 1 1 1 1 1 1 1 1 1 1 1 1 1 1 1 1 1 1 1 1 1 1 1 1 1 1 1 1 1 0 0 0 0 0 0 0 0 0 0 0 0 0 0 0 0 0 0 0 0 0 0 0 0 0 0 0 0 0 0 0 0 0 0 0 0 0 0 0 0 0 0 0 0 0 0 0 0 0 "/>
</feComponentTransfer>
<feComposite operator="in" in2="shape" in="coloredNoise1" result="noise1Clipped" />
<feFlood flood-color="rgba(0, 0, 0, 0.28)" result="color1Flood" />
<feComposite operator="in" in2="noise1Clipped" in="color1Flood" result="color1" />
<feMerge result="effect2_noise_357_3171">
<feMergeNode in="shape" />
<feMergeNode in="color1" />
</feMerge>
<feBlend mode="normal" in="effect2_noise_357_3171" in2="effect1_dropShadow_357_3171" result="effect2_noise_357_3171"/>
</filter>
<linearGradient id="paint0_linear_357_3171" x1="864.5" y1="8.95825" x2="864.5" y2="487.865" gradientUnits="userSpaceOnUse">
<stop offset="0.5" stop-color="white"/>
<stop offset="1" stop-color="#A9A9A9"/>
</linearGradient>
<linearGradient id="paint1_linear_357_3171" x1="865" y1="425.958" x2="865" y2="1649.82" gradientUnits="userSpaceOnUse">
<stop offset="0.288462" stop-color="white"/>
<stop offset="1" stop-color="#A2A2A2"/>
</linearGradient>
</defs>
</svg>
